<?xml version="1.0" encoding="utf-8"?>
<!-- Generator: Adobe Illustrator 19.0.0, SVG Export Plug-In . SVG Version: 6.00 Build 0)  -->
<svg version="1.1" id="Layer_1" xmlns="http://www.w3.org/2000/svg" xmlns:xlink="http://www.w3.org/1999/xlink" x="0px" y="0px"
	 viewBox="0 0 202.8 57.2" style="enable-background:new 0 0 202.8 57.2;" xml:space="preserve">
<style type="text/css">
	.st0{fill:#010101;}
	.st1{fill:#231F20;stroke:#231F20;stroke-width:0.4949;stroke-miterlimit:10;}
	.st2{fill:#231F20;stroke:#231F20;stroke-width:0.5032;stroke-miterlimit:10;}
</style>
<g id="XMLID_5_">
	<g id="XMLID_65_">
		<g id="XMLID_451_">
			<path id="XMLID_495_" class="st0" d="M45.9,50.8c-0.4,0.2-0.9,0.3-1.4,0.3c-0.4,0-0.8-0.1-1.2-0.2c-0.4-0.2-0.7-0.4-1-0.7
				s-0.5-0.6-0.6-1c-0.2-0.4-0.2-0.8-0.2-1.2c0-0.4,0.1-0.8,0.2-1.2c0.2-0.4,0.4-0.7,0.6-1c0.3-0.3,0.6-0.5,1-0.7
				c0.4-0.2,0.8-0.2,1.2-0.2c0.3,0,0.5,0,0.8,0.1s0.4,0.1,0.6,0.2c0.2,0.1,0.4,0.2,0.5,0.3c0.2,0.1,0.3,0.3,0.4,0.4l-0.6,0.6
				c-0.2-0.2-0.5-0.5-0.8-0.6s-0.6-0.3-1-0.3c-0.3,0-0.6,0.1-0.8,0.2c-0.3,0.1-0.5,0.3-0.7,0.5s-0.3,0.5-0.4,0.7
				c-0.1,0.3-0.2,0.6-0.2,0.9c0,0.3,0.1,0.6,0.2,0.9c0.1,0.3,0.3,0.5,0.5,0.7s0.4,0.4,0.7,0.5c0.3,0.1,0.6,0.2,0.9,0.2
				c0.4,0,0.7-0.1,1-0.3c0.3-0.2,0.6-0.4,0.8-0.6l0.6,0.5C46.6,50.3,46.3,50.6,45.9,50.8z"/>
			<path id="XMLID_492_" class="st0" d="M49.6,45.9c-0.3,0.1-0.6,0.2-0.8,0.3l-0.3-0.7c0.3-0.2,0.7-0.3,1-0.4
				c0.3-0.1,0.7-0.1,1.2-0.1c0.8,0,1.4,0.2,1.9,0.6c0.4,0.4,0.7,1,0.7,1.8V51h-0.9v-0.9c-0.2,0.3-0.5,0.5-0.8,0.7
				c-0.3,0.2-0.8,0.3-1.3,0.3c-0.3,0-0.5,0-0.8-0.1c-0.3-0.1-0.5-0.2-0.7-0.4c-0.2-0.2-0.4-0.4-0.5-0.6c-0.1-0.2-0.2-0.5-0.2-0.8
				c0-0.3,0.1-0.6,0.2-0.8c0.1-0.2,0.3-0.4,0.5-0.6s0.5-0.3,0.8-0.4s0.7-0.1,1-0.1c0.4,0,0.7,0,1,0.1c0.3,0,0.6,0.1,0.8,0.2v-0.2
				c0-0.5-0.2-0.9-0.5-1.2s-0.7-0.4-1.3-0.4C50.2,45.8,49.9,45.8,49.6,45.9z M49.3,48.3c-0.3,0.2-0.4,0.5-0.4,0.9
				c0,0.2,0,0.4,0.1,0.5c0.1,0.1,0.2,0.3,0.3,0.4c0.1,0.1,0.3,0.2,0.5,0.2s0.4,0.1,0.6,0.1c0.3,0,0.5,0,0.8-0.1
				c0.2-0.1,0.5-0.2,0.6-0.3c0.2-0.1,0.3-0.3,0.4-0.5c0.1-0.2,0.2-0.4,0.2-0.7v-0.6c-0.2-0.1-0.5-0.1-0.8-0.2
				c-0.3-0.1-0.6-0.1-1-0.1C50,48,49.6,48.1,49.3,48.3z"/>
			<path id="XMLID_490_" class="st0" d="M58.1,45.1v0.8h-1.9V51h-0.9v-5.2h-0.8v-0.8h0.8v-0.5c0-0.7,0.2-1.1,0.5-1.5
				c0.3-0.3,0.8-0.5,1.3-0.5c0.2,0,0.4,0,0.5,0c0.1,0,0.3,0.1,0.4,0.1v0.8c-0.2,0-0.3-0.1-0.4-0.1c-0.1,0-0.3,0-0.4,0
				c-0.7,0-1,0.4-1,1.3v0.5H58.1z"/>
			<path id="XMLID_487_" class="st0" d="M59.9,49.2c0.1,0.3,0.3,0.5,0.5,0.6c0.2,0.2,0.4,0.3,0.6,0.4c0.2,0.1,0.5,0.1,0.7,0.1
				c0.4,0,0.8-0.1,1.1-0.2c0.3-0.2,0.6-0.4,0.8-0.6l0.6,0.5c-0.3,0.3-0.6,0.6-1,0.8s-0.9,0.3-1.4,0.3c-0.4,0-0.8-0.1-1.2-0.2
				s-0.7-0.4-0.9-0.6s-0.5-0.6-0.6-1c-0.2-0.4-0.2-0.8-0.2-1.3c0-0.4,0.1-0.8,0.2-1.2c0.1-0.4,0.3-0.7,0.6-1s0.6-0.5,0.9-0.7
				c0.3-0.2,0.7-0.2,1.1-0.2c0.4,0,0.8,0.1,1.2,0.2c0.3,0.2,0.6,0.4,0.9,0.7c0.2,0.3,0.4,0.6,0.5,1c0.1,0.4,0.2,0.8,0.2,1.2
				c0,0,0,0.1,0,0.1c0,0,0,0.1,0,0.1h-4.7C59.7,48.7,59.8,49,59.9,49.2z M63.5,47.7c0-0.3-0.1-0.5-0.2-0.8s-0.2-0.5-0.4-0.6
				c-0.2-0.2-0.3-0.3-0.6-0.4s-0.5-0.2-0.8-0.2c-0.3,0-0.5,0.1-0.7,0.2c-0.2,0.1-0.4,0.2-0.6,0.4s-0.3,0.4-0.4,0.6s-0.2,0.5-0.2,0.8
				H63.5z"/>
			<path id="XMLID_485_" class="st0" d="M69.3,51v-1.2h1.1V51H69.3z"/>
			<path id="XMLID_482_" class="st0" d="M81.5,49.4c-0.2,0.4-0.4,0.7-0.6,1c-0.3,0.3-0.6,0.5-0.9,0.6c-0.3,0.1-0.7,0.2-1.1,0.2
				c-0.3,0-0.5,0-0.8-0.1c-0.2-0.1-0.4-0.2-0.6-0.3c-0.2-0.1-0.4-0.2-0.5-0.4c-0.1-0.2-0.3-0.3-0.4-0.5V51h-0.9v-8.4h0.9v3.7
				c0.1-0.2,0.3-0.3,0.4-0.5c0.1-0.2,0.3-0.3,0.5-0.4c0.2-0.1,0.4-0.2,0.6-0.3c0.2-0.1,0.5-0.1,0.8-0.1c0.4,0,0.7,0.1,1,0.2
				s0.6,0.3,0.9,0.6c0.3,0.3,0.5,0.6,0.6,1c0.2,0.4,0.2,0.8,0.2,1.3C81.7,48.5,81.6,49,81.5,49.4z M80.6,47.1
				c-0.1-0.3-0.3-0.5-0.5-0.7c-0.2-0.2-0.4-0.4-0.7-0.5s-0.5-0.2-0.8-0.2c-0.3,0-0.5,0.1-0.8,0.2s-0.5,0.3-0.7,0.5
				c-0.2,0.2-0.4,0.4-0.5,0.7s-0.2,0.6-0.2,0.9c0,0.3,0.1,0.7,0.2,0.9c0.1,0.3,0.3,0.5,0.5,0.7c0.2,0.2,0.4,0.4,0.7,0.5
				s0.5,0.2,0.8,0.2c0.3,0,0.6-0.1,0.8-0.2s0.5-0.3,0.7-0.4c0.2-0.2,0.3-0.4,0.4-0.7s0.2-0.6,0.2-1C80.8,47.7,80.7,47.4,80.6,47.1z"
				/>
			<path id="XMLID_479_" class="st0" d="M84.5,45.9c-0.3,0.1-0.6,0.2-0.8,0.3l-0.3-0.7c0.3-0.2,0.7-0.3,1-0.4
				c0.3-0.1,0.7-0.1,1.2-0.1c0.8,0,1.4,0.2,1.9,0.6c0.4,0.4,0.7,1,0.7,1.8V51h-0.9v-0.9c-0.2,0.3-0.5,0.5-0.8,0.7
				c-0.3,0.2-0.8,0.3-1.3,0.3c-0.3,0-0.5,0-0.8-0.1c-0.3-0.1-0.5-0.2-0.7-0.4c-0.2-0.2-0.4-0.4-0.5-0.6c-0.1-0.2-0.2-0.5-0.2-0.8
				c0-0.3,0.1-0.6,0.2-0.8c0.1-0.2,0.3-0.4,0.5-0.6s0.5-0.3,0.8-0.4s0.7-0.1,1-0.1c0.4,0,0.7,0,1,0.1c0.3,0,0.6,0.1,0.8,0.2v-0.2
				c0-0.5-0.2-0.9-0.5-1.2s-0.7-0.4-1.3-0.4C85.2,45.8,84.8,45.8,84.5,45.9z M84.3,48.3c-0.3,0.2-0.4,0.5-0.4,0.9
				c0,0.2,0,0.4,0.1,0.5c0.1,0.1,0.2,0.3,0.3,0.4c0.1,0.1,0.3,0.2,0.5,0.2s0.4,0.1,0.6,0.1c0.3,0,0.5,0,0.8-0.1
				c0.2-0.1,0.5-0.2,0.6-0.3c0.2-0.1,0.3-0.3,0.4-0.5c0.1-0.2,0.2-0.4,0.2-0.7v-0.6c-0.2-0.1-0.5-0.1-0.8-0.2
				c-0.3-0.1-0.6-0.1-1-0.1C85,48,84.6,48.1,84.3,48.3z"/>
			<path id="XMLID_477_" class="st0" d="M95.3,51h-1.1l-2.1-2.8l-1.2,1.2V51H90v-8.4h0.9v5.8l3.2-3.4h1.1l-2.5,2.6L95.3,51z"/>
			<path id="XMLID_474_" class="st0" d="M97.1,49.2c0.1,0.3,0.3,0.5,0.5,0.6c0.2,0.2,0.4,0.3,0.6,0.4c0.2,0.1,0.5,0.1,0.7,0.1
				c0.4,0,0.8-0.1,1.1-0.2c0.3-0.2,0.6-0.4,0.8-0.6l0.6,0.5c-0.3,0.3-0.6,0.6-1,0.8s-0.9,0.3-1.4,0.3c-0.4,0-0.8-0.1-1.2-0.2
				s-0.7-0.4-0.9-0.6s-0.5-0.6-0.6-1c-0.2-0.4-0.2-0.8-0.2-1.3c0-0.4,0.1-0.8,0.2-1.2c0.1-0.4,0.3-0.7,0.6-1s0.6-0.5,0.9-0.7
				c0.3-0.2,0.7-0.2,1.1-0.2c0.4,0,0.8,0.1,1.2,0.2c0.3,0.2,0.6,0.4,0.9,0.7c0.2,0.3,0.4,0.6,0.5,1c0.1,0.4,0.2,0.8,0.2,1.2
				c0,0,0,0.1,0,0.1c0,0,0,0.1,0,0.1h-4.7C96.9,48.7,96.9,49,97.1,49.2z M100.6,47.7c0-0.3-0.1-0.5-0.2-0.8s-0.2-0.5-0.4-0.6
				c-0.2-0.2-0.3-0.3-0.6-0.4s-0.5-0.2-0.8-0.2c-0.3,0-0.5,0.1-0.7,0.2c-0.2,0.1-0.4,0.2-0.6,0.4s-0.3,0.4-0.4,0.6s-0.2,0.5-0.2,0.8
				H100.6z"/>
			<path id="XMLID_472_" class="st0" d="M104,51h-0.9v-6h0.9v1.6c0.1-0.2,0.2-0.5,0.4-0.7c0.2-0.2,0.3-0.4,0.6-0.5
				c0.2-0.1,0.4-0.3,0.7-0.3c0.2-0.1,0.5-0.1,0.8-0.1v1h-0.1c-0.3,0-0.6,0.1-0.9,0.2c-0.3,0.1-0.5,0.3-0.8,0.5
				c-0.2,0.2-0.4,0.5-0.5,0.9c-0.1,0.3-0.2,0.7-0.2,1.2V51z"/>
			<path id="XMLID_470_" class="st0" d="M110.7,51.2c-0.3,0.6-0.5,1-0.8,1.3c-0.3,0.3-0.7,0.4-1.1,0.4c-0.2,0-0.5,0-0.7-0.1
				s-0.4-0.1-0.6-0.2l0.3-0.7c0.1,0.1,0.3,0.1,0.4,0.2c0.1,0,0.3,0.1,0.5,0.1c0.3,0,0.5-0.1,0.7-0.2c0.2-0.2,0.4-0.5,0.5-0.9
				l-2.7-5.9h1l2.2,5l1.9-5h0.9L110.7,51.2z"/>
			<path id="XMLID_468_" class="st0" d="M117.9,51v-1.2h1.1V51H117.9z"/>
			<path id="XMLID_465_" class="st0" d="M130.1,49.4c-0.2,0.4-0.4,0.7-0.6,1c-0.3,0.3-0.6,0.5-0.9,0.6s-0.7,0.2-1.1,0.2
				c-0.3,0-0.5,0-0.8-0.1c-0.2-0.1-0.4-0.2-0.6-0.3s-0.4-0.2-0.5-0.4c-0.1-0.2-0.3-0.3-0.4-0.5V51h-0.9v-8.4h0.9v3.7
				c0.1-0.2,0.3-0.3,0.4-0.5s0.3-0.3,0.5-0.4c0.2-0.1,0.4-0.2,0.6-0.3c0.2-0.1,0.5-0.1,0.8-0.1c0.4,0,0.7,0.1,1,0.2
				c0.3,0.1,0.6,0.3,0.9,0.6c0.3,0.3,0.5,0.6,0.6,1c0.2,0.4,0.2,0.8,0.2,1.3C130.3,48.5,130.2,49,130.1,49.4z M129.2,47.1
				c-0.1-0.3-0.3-0.5-0.5-0.7c-0.2-0.2-0.4-0.4-0.7-0.5c-0.3-0.1-0.5-0.2-0.8-0.2c-0.3,0-0.5,0.1-0.8,0.2c-0.3,0.1-0.5,0.3-0.7,0.5
				c-0.2,0.2-0.4,0.4-0.5,0.7c-0.1,0.3-0.2,0.6-0.2,0.9c0,0.3,0.1,0.7,0.2,0.9c0.1,0.3,0.3,0.5,0.5,0.7s0.4,0.4,0.7,0.5
				c0.3,0.1,0.5,0.2,0.8,0.2c0.3,0,0.6-0.1,0.8-0.2c0.3-0.1,0.5-0.3,0.7-0.4c0.2-0.2,0.3-0.4,0.4-0.7s0.2-0.6,0.2-1
				C129.4,47.7,129.3,47.4,129.2,47.1z"/>
			<path id="XMLID_462_" class="st0" d="M132,43.8v-1h1v1H132z M132,51v-6h0.9v6H132z"/>
			<path id="XMLID_460_" class="st0" d="M138.9,50.1c-0.1,0.2-0.3,0.4-0.4,0.6c-0.2,0.2-0.4,0.3-0.7,0.4c-0.3,0.1-0.5,0.1-0.8,0.1
				c-0.4,0-0.9-0.1-1.3-0.2s-0.8-0.4-1.2-0.6l0.4-0.6c0.3,0.2,0.7,0.4,1,0.6s0.7,0.2,1.1,0.2c0.4,0,0.7-0.1,0.9-0.3s0.3-0.4,0.3-0.7
				v0c0-0.1,0-0.3-0.1-0.4c-0.1-0.1-0.2-0.2-0.3-0.3c-0.1-0.1-0.3-0.2-0.5-0.2c-0.2-0.1-0.4-0.1-0.6-0.2c-0.2-0.1-0.5-0.1-0.7-0.2
				s-0.4-0.2-0.6-0.3c-0.2-0.1-0.3-0.3-0.5-0.5c-0.1-0.2-0.2-0.4-0.2-0.7v0c0-0.3,0-0.5,0.1-0.7c0.1-0.2,0.2-0.4,0.4-0.5
				c0.2-0.1,0.4-0.3,0.6-0.3c0.2-0.1,0.5-0.1,0.8-0.1c0.4,0,0.7,0.1,1.1,0.2c0.4,0.1,0.7,0.3,1,0.5l-0.4,0.7
				c-0.3-0.2-0.6-0.3-0.9-0.4c-0.3-0.1-0.6-0.2-0.9-0.2c-0.4,0-0.6,0.1-0.8,0.2s-0.3,0.4-0.3,0.6v0c0,0.1,0,0.3,0.1,0.4
				c0.1,0.1,0.2,0.2,0.3,0.3c0.1,0.1,0.3,0.1,0.5,0.2c0.2,0.1,0.4,0.1,0.6,0.2c0.2,0.1,0.5,0.1,0.7,0.2s0.4,0.2,0.6,0.3
				c0.2,0.1,0.3,0.3,0.4,0.5c0.1,0.2,0.2,0.4,0.2,0.7v0C139.1,49.6,139,49.9,138.9,50.1z"/>
			<path id="XMLID_458_" class="st0" d="M141.8,49.3c0,0.4,0.1,0.6,0.3,0.8c0.2,0.1,0.4,0.2,0.7,0.2c0.2,0,0.3,0,0.4,0
				c0.1,0,0.3-0.1,0.4-0.2v0.8c-0.2,0.1-0.3,0.1-0.5,0.2c-0.2,0-0.4,0.1-0.6,0.1c-0.2,0-0.5,0-0.7-0.1c-0.2-0.1-0.4-0.2-0.5-0.3
				s-0.3-0.3-0.4-0.5c-0.1-0.2-0.1-0.5-0.1-0.8v-3.6h-0.8v-0.8h0.8v-1.8h0.9v1.8h1.9v0.8h-1.9V49.3z"/>
			<path id="XMLID_456_" class="st0" d="M146.1,51h-0.9v-6h0.9v1.6c0.1-0.2,0.2-0.5,0.4-0.7c0.2-0.2,0.3-0.4,0.6-0.5
				c0.2-0.1,0.4-0.3,0.7-0.3c0.2-0.1,0.5-0.1,0.8-0.1v1h-0.1c-0.3,0-0.6,0.1-0.9,0.2s-0.5,0.3-0.8,0.5c-0.2,0.2-0.4,0.5-0.5,0.9
				s-0.2,0.7-0.2,1.2V51z"/>
			<path id="XMLID_452_" class="st0" d="M155.5,49.2c-0.2,0.4-0.4,0.7-0.7,1c-0.3,0.3-0.6,0.5-1,0.7s-0.8,0.2-1.2,0.2
				s-0.9-0.1-1.2-0.2c-0.4-0.2-0.7-0.4-1-0.7s-0.5-0.6-0.6-1c-0.2-0.4-0.2-0.8-0.2-1.2c0-0.4,0.1-0.8,0.2-1.2c0.2-0.4,0.4-0.7,0.6-1
				c0.3-0.3,0.6-0.5,1-0.7c0.4-0.2,0.8-0.2,1.3-0.2c0.4,0,0.9,0.1,1.2,0.2c0.4,0.2,0.7,0.4,1,0.7s0.5,0.6,0.6,1
				c0.2,0.4,0.2,0.8,0.2,1.2C155.8,48.5,155.7,48.9,155.5,49.2z M154.7,47.2c-0.1-0.3-0.3-0.5-0.5-0.7c-0.2-0.2-0.4-0.4-0.7-0.5
				c-0.3-0.1-0.6-0.2-0.9-0.2c-0.3,0-0.6,0.1-0.9,0.2c-0.3,0.1-0.5,0.3-0.7,0.5c-0.2,0.2-0.3,0.5-0.4,0.7c-0.1,0.3-0.2,0.6-0.2,0.9
				c0,0.3,0.1,0.6,0.2,0.9c0.1,0.3,0.3,0.5,0.5,0.7c0.2,0.2,0.4,0.4,0.7,0.5c0.3,0.1,0.6,0.2,0.9,0.2c0.3,0,0.6-0.1,0.9-0.2
				c0.3-0.1,0.5-0.3,0.7-0.5c0.2-0.2,0.3-0.4,0.4-0.7c0.1-0.3,0.2-0.6,0.2-0.9S154.8,47.4,154.7,47.2z M152.3,44.2l1.1-1.7l0.9,0.4
				l-1.3,1.2H152.3z"/>
		</g>
	</g>
	<g id="XMLID_661_">
		<path id="XMLID_684_" class="st1" d="M13.7,30.9V12.2h3.7v14.9h8.4v3.7H13.7z"/>
		<path id="XMLID_681_" class="st1" d="M41.2,30.9l-1.5-4.2h-7.1l-1.5,4.2h-3.8l7.2-18.8h3.4L45,30.9H41.2z M36,17L33.8,23h4.5
			L36,17z"/>
		<path id="XMLID_679_" class="st1" d="M63.5,31h-3.3l-6.8-18.8h4.1l4.4,13.1l4.4-13.1h4L63.5,31z"/>
		<path id="XMLID_676_" class="st1" d="M80,31.2c-5.2,0-8.9-4.3-8.9-9.6v-0.1c0-5.3,3.8-9.6,9-9.6c5.2,0,8.9,4.3,8.9,9.6v0.1
			C89,26.8,85.2,31.2,80,31.2z M85.1,21.5c0-3.2-2.1-5.9-5.1-5.9c-3,0-5.1,2.6-5.1,5.8v0.1c0,3.2,2.1,5.9,5.1,5.9
			C83,27.4,85.1,24.8,85.1,21.5L85.1,21.5z"/>
		<path id="XMLID_674_" class="st1" d="M92.3,30.9V12.2H96v14.9h8.4v3.7H92.3z"/>
		<path id="XMLID_672_" class="st1" d="M113.7,31.2c-4.5,0-7.3-2.8-7.3-8.3V12.2h3.7v10.6c0,3,1.4,4.6,3.6,4.6
			c2.3,0,3.6-1.5,3.6-4.5V12.2h3.7v10.5C121.1,28.4,118.2,31.2,113.7,31.2z"/>
		<path id="XMLID_670_" class="st1" d="M136.7,30.9L128.5,19v11.9h-3.7V12.2h3.4l7.9,11.5V12.2h3.7v18.7H136.7z"/>
		<path id="XMLID_668_" class="st1" d="M151.5,16v14.9h-3.7V16h-5.1v-3.8h14V16H151.5z"/>
		<path id="XMLID_665_" class="st1" d="M169.9,30.9l-1.5-4.2h-7.1l-1.5,4.2h-3.8l7.2-18.8h3.4l7.2,18.8H169.9z M164.8,17l-2.2,6.1
			h4.5L164.8,17z"/>
		<path id="XMLID_662_" class="st1" d="M182.9,30.9h-6.6V12.2h6.6c5.3,0,9,4,9,9.3v0.1C191.9,26.8,188.2,30.9,182.9,30.9z M188,21.5
			c0-3.3-2-5.6-5.1-5.6H180v11.2h2.9C185.9,27.2,188,24.9,188,21.5L188,21.5z"/>
	</g>
	<rect id="XMLID_660_" x="13.6" y="35" class="st2" width="178" height="2.5"/>
</g>
</svg>
